<svg xmlns="http://www.w3.org/2000/svg" viewBox="0 0 800 800" width="800" height="800">
<defs>
<radialGradient id="glow" cx="50%" cy="42%" r="65%">
<stop offset="0%" stop-color="#FF6B35" stop-opacity="0.35"/>
<stop offset="100%" stop-color="#FF6B35" stop-opacity="0"/>
</radialGradient>
<linearGradient id="bggrad" x1="0" y1="0" x2="1" y2="1">
<stop offset="0%" stop-color="#1E232B"/>
<stop offset="100%" stop-color="#171B21"/>
</linearGradient>
</defs>
<rect width="800" height="800" fill="url(#bggrad)"/>
<circle cx="400.0" cy="336.0" r="320.0" fill="url(#glow)"/>
<rect x="337.0" y="245.0" width="27.0" height="82.5" rx="13.5" fill="none" stroke="#FF6B35" stroke-width="5"/><rect x="379.0" y="245.0" width="27.0" height="82.5" rx="13.5" fill="none" stroke="#FF6B35" stroke-width="5"/><rect x="421.0" y="245.0" width="27.0" height="82.5" rx="13.5" fill="none" stroke="#FF6B35" stroke-width="5"/><rect x="463.0" y="245.0" width="27.0" height="82.5" rx="13.5" fill="none" stroke="#FF6B35" stroke-width="5"/><rect x="317.5" y="317.0" width="187.5" height="127.5" rx="45.0" fill="none" stroke="#FF6B35" stroke-width="6"/><rect x="272.5" y="357.5" width="63.0" height="33.0" rx="16.5" fill="none" stroke="#FF6B35" stroke-width="5"/><circle cx="400" cy="387.5" r="27.0" fill="none" stroke="#FF6B35" stroke-width="6" opacity="0.85"/>
<circle cx="400" cy="387.5" r="16.74" fill="none" stroke="#2C333D" stroke-width="2"/>
<line x1="400" y1="387.5" x2="400" y2="372.65" stroke="#FF6B35" stroke-width="6" stroke-linecap="round"/>
<circle cx="400" cy="387.5" r="10" fill="#FF6B35"/>
<text x="400" y="620" font-family="Arial, sans-serif" font-size="22" letter-spacing="4" fill="#F5F3EF" text-anchor="middle" opacity="0.85">HEATED GLOVES</text>
<text x="400" y="655" font-family="Arial, sans-serif" font-size="14" letter-spacing="2" fill="#4FD1C5" text-anchor="middle" opacity="0.9">SKU HG-001</text>
<text x="400" y="720" font-family="Arial, sans-serif" font-size="13" fill="#F5F3EF" text-anchor="middle" opacity="0.45">Placeholder image — replace with Amazon product photo</text>
</svg>